<svg xmlns="http://www.w3.org/2000/svg" width="26" height="26" viewBox="0 0 26 26" fill="none">
  <path fill-rule="evenodd" clip-rule="evenodd" d="M11.9986 0.665084C12.2643 0.3995 12.6245 0.250303 13.0002 0.250303C13.3758 0.250303 13.7361 0.3995 14.0018 0.665084L22.5018 9.16508L25.3351 11.9984C25.5931 12.2656 25.7359 12.6235 25.7327 12.9949C25.7295 13.3663 25.5805 13.7217 25.3178 13.9843C25.0552 14.247 24.6998 14.396 24.3284 14.3992C23.957 14.4024 23.5991 14.2596 23.3319 14.0016L22.9168 13.5865V22.9167C22.9168 23.6681 22.6183 24.3888 22.087 24.9201C21.5556 25.4515 20.8349 25.75 20.0835 25.75H15.8335C15.4578 25.75 15.0974 25.6007 14.8318 25.3351C14.5661 25.0694 14.4168 24.7091 14.4168 24.3333V20.0833H11.5835V24.3333C11.5835 24.7091 11.4342 25.0694 11.1686 25.3351C10.9029 25.6007 10.5426 25.75 10.1668 25.75H5.91684C5.16539 25.75 4.44472 25.4515 3.91337 24.9201C3.38201 24.3888 3.0835 23.6681 3.0835 22.9167V13.5865L2.66842 14.0016C2.40123 14.2596 2.04338 14.4024 1.67193 14.3992C1.30049 14.396 0.945172 14.247 0.68251 13.9843C0.419849 13.7217 0.270859 13.3663 0.267632 12.9949C0.264404 12.6235 0.407196 12.2656 0.665253 11.9984L3.49859 9.16508L11.9986 0.665084Z" fill="black"/>
</svg>